<svg width="28" height="31" viewBox="0 0 28 31" fill="none" xmlns="http://www.w3.org/2000/svg">
<g filter="url(#filter0_d_4_112)">
<path fill-rule="evenodd" clip-rule="evenodd" d="M9.05025 3.05025C10.363 1.7375 12.1435 1 14 1C15.8565 1 17.637 1.7375 18.9497 3.05025C20.2625 4.36301 21 6.14349 21 8C21 11.3527 21.7171 13.4346 22.3779 14.6461C22.7097 15.2544 23.0328 15.6535 23.2572 15.8904C23.3697 16.0091 23.4581 16.0878 23.5113 16.1322C23.5379 16.1544 23.5558 16.168 23.5635 16.1737C23.5647 16.1746 23.5656 16.1753 23.5663 16.1758C23.9248 16.4221 24.0834 16.8725 23.9571 17.2898C23.8294 17.7115 23.4407 18 23 18H5C4.55933 18 4.17061 17.7115 4.04291 17.2898C3.91657 16.8725 4.07521 16.4221 4.43369 16.1758C4.43439 16.1753 4.43535 16.1746 4.43655 16.1737C4.44425 16.168 4.4621 16.1544 4.48872 16.1322C4.54194 16.0878 4.63032 16.0091 4.7428 15.8904C4.96723 15.6535 5.29031 15.2544 5.62211 14.6461C6.28293 13.4346 7 11.3527 7 8C7 6.14348 7.7375 4.36301 9.05025 3.05025ZM4.4438 16.169C4.44388 16.1689 4.44396 16.1688 4.44404 16.1688C4.44403 16.1688 4.44403 16.1688 4.44402 16.1688L4.4438 16.169ZM7.14933 16H20.8507C20.7746 15.8753 20.6982 15.7434 20.6221 15.6039C19.7829 14.0654 19 11.6473 19 8C19 6.67392 18.4732 5.40215 17.5355 4.46447C16.5979 3.52678 15.3261 3 14 3C12.6739 3 11.4021 3.52678 10.4645 4.46447C9.52679 5.40215 9 6.67392 9 8C9 11.6473 8.21707 14.0654 7.3779 15.6039C7.3018 15.7434 7.22541 15.8753 7.14933 16Z" fill="#072D4B"/>
<path fill-rule="evenodd" clip-rule="evenodd" d="M11.7682 20.135C12.246 19.8579 12.8579 20.0205 13.135 20.4982C13.2229 20.6498 13.3491 20.7756 13.5009 20.863C13.6527 20.9504 13.8248 20.9965 14 20.9965C14.1752 20.9965 14.3473 20.9504 14.4991 20.863C14.6509 20.7756 14.7771 20.6498 14.865 20.4982C15.1421 20.0205 15.754 19.8579 16.2318 20.135C16.7095 20.4121 16.8721 21.0241 16.595 21.5018C16.3313 21.9564 15.9528 22.3338 15.4973 22.5961C15.0419 22.8584 14.5256 22.9965 14 22.9965C13.4744 22.9965 12.9581 22.8584 12.5027 22.5961C12.0472 22.3338 11.6687 21.9564 11.405 21.5018C11.1279 21.0241 11.2905 20.4121 11.7682 20.135Z" fill="#072D4B"/>
</g>
<defs>
<filter id="filter0_d_4_112" x="-2" y="0" width="32" height="32" filterUnits="userSpaceOnUse" color-interpolation-filters="sRGB">
<feFlood flood-opacity="0" result="BackgroundImageFix"/>
<feColorMatrix in="SourceAlpha" type="matrix" values="0 0 0 0 0 0 0 0 0 0 0 0 0 0 0 0 0 0 127 0" result="hardAlpha"/>
<feOffset dy="4"/>
<feGaussianBlur stdDeviation="2"/>
<feComposite in2="hardAlpha" operator="out"/>
<feColorMatrix type="matrix" values="0 0 0 0 0 0 0 0 0 0 0 0 0 0 0 0 0 0 0.25 0"/>
<feBlend mode="normal" in2="BackgroundImageFix" result="effect1_dropShadow_4_112"/>
<feBlend mode="normal" in="SourceGraphic" in2="effect1_dropShadow_4_112" result="shape"/>
</filter>
</defs>
</svg>
