<svg width="30" height="30" viewBox="0 0 30 30" fill="none" xmlns="http://www.w3.org/2000/svg">
<g filter="url(#filter0_d_4_115)">
<path fill-rule="evenodd" clip-rule="evenodd" d="M7 8C6.44772 8 6 8.44772 6 9V19C6 19.5523 6.44772 20 7 20H23C23.5523 20 24 19.5523 24 19V9C24 8.44772 23.5523 8 23 8H7ZM4 9C4 7.34315 5.34315 6 7 6H23C24.6569 6 26 7.34315 26 9V19C26 20.6569 24.6569 22 23 22H7C5.34315 22 4 20.6569 4 19V9Z" fill="#072D4B"/>
<path fill-rule="evenodd" clip-rule="evenodd" d="M10.8787 2.87868C11.4413 2.31607 12.2044 2 13 2H17C17.7956 2 18.5587 2.31607 19.1213 2.87868C19.6839 3.44129 20 4.20435 20 5V21C20 21.5523 19.5523 22 19 22C18.4477 22 18 21.5523 18 21V5C18 4.73478 17.8946 4.48043 17.7071 4.29289C17.5196 4.10536 17.2652 4 17 4H13C12.7348 4 12.4804 4.10536 12.2929 4.29289C12.1054 4.48043 12 4.73478 12 5V21C12 21.5523 11.5523 22 11 22C10.4477 22 10 21.5523 10 21V5C10 4.20435 10.3161 3.44129 10.8787 2.87868Z" fill="#072D4B"/>
</g>
<defs>
<filter id="filter0_d_4_115" x="-1" y="0" width="32" height="32" filterUnits="userSpaceOnUse" color-interpolation-filters="sRGB">
<feFlood flood-opacity="0" result="BackgroundImageFix"/>
<feColorMatrix in="SourceAlpha" type="matrix" values="0 0 0 0 0 0 0 0 0 0 0 0 0 0 0 0 0 0 127 0" result="hardAlpha"/>
<feOffset dy="4"/>
<feGaussianBlur stdDeviation="2"/>
<feComposite in2="hardAlpha" operator="out"/>
<feColorMatrix type="matrix" values="0 0 0 0 0 0 0 0 0 0 0 0 0 0 0 0 0 0 0.25 0"/>
<feBlend mode="normal" in2="BackgroundImageFix" result="effect1_dropShadow_4_115"/>
<feBlend mode="normal" in="SourceGraphic" in2="effect1_dropShadow_4_115" result="shape"/>
</filter>
</defs>
</svg>
