<svg width="21" height="21" viewBox="0 0 21 21" fill="none" xmlns="http://www.w3.org/2000/svg">
<path fill-rule="evenodd" clip-rule="evenodd" d="M6.58468 17.3412C6.9863 17.2472 7.40714 17.2797 7.78957 17.4342C9.36759 18.0718 11.1268 18.1342 12.7698 17.6032C14.4139 17.0719 15.8414 15.9784 16.8019 14.5018C17.7627 13.0248 18.1918 11.2636 18.0186 9.52128C17.8455 7.77977 17.0824 6.17062 15.8697 4.96271C14.6576 3.75539 13.0666 3.01835 11.3657 2.87489C9.66409 2.73138 7.9494 3.1904 6.51586 4.18488C5.08156 5.17987 4.02114 6.64735 3.52085 8.33846C3.02062 10.0294 3.11399 11.8301 3.77632 13.4324C3.97583 13.9151 3.97861 14.4567 3.78407 14.9414L2.49014 18.1652L3.65318 18.0271L6.58468 17.3412ZM4 20L0.420394 20.425L8.41342e-07 19L1.92799 14.1964C1.08916 12.167 0.974312 9.89629 1.60301 7.7711C2.23171 5.64591 3.56506 3.79777 5.37587 2.54158C7.18668 1.28539 9.36291 0.698875 11.5338 0.881968C13.7046 1.06506 15.7358 2.00644 17.2811 3.54569C18.8265 5.08495 19.7905 7.12685 20.0088 9.32348C20.2271 11.5201 19.6863 13.7355 18.4785 15.5923C17.2706 17.4491 15.4705 18.8323 13.3848 19.5063C11.2992 20.1803 9.057 20.1034 7.04036 19.2886L4 20Z" fill="black"/>
</svg>
