<svg width="32" height="32" viewBox="0 0 32 32" fill="none" xmlns="http://www.w3.org/2000/svg">
<g filter="url(#filter0_d_4_105)">
<path fill-rule="evenodd" clip-rule="evenodd" d="M16 10C14.8954 10 14 10.8954 14 12C14 13.1046 14.8954 14 16 14C17.1046 14 18 13.1046 18 12C18 10.8954 17.1046 10 16 10ZM12 12C12 9.79086 13.7909 8 16 8C18.2091 8 20 9.79086 20 12C20 14.2091 18.2091 16 16 16C13.7909 16 12 14.2091 12 12Z" fill="#072D4B"/>
<path fill-rule="evenodd" clip-rule="evenodd" d="M16 2C15.7348 2 15.4804 2.10536 15.2929 2.29289C15.1054 2.48043 15 2.73478 15 3V3.17399C14.9979 3.6908 14.8448 4.19572 14.5594 4.62661C14.2741 5.0575 13.869 5.39555 13.3939 5.59914C13.3094 5.63538 13.2204 5.65969 13.1296 5.67157C12.698 5.82272 12.2333 5.85998 11.781 5.77796C11.26 5.68349 10.7793 5.43512 10.4007 5.06486L10.3928 5.05715L10.3329 4.99711C10.24 4.90413 10.1293 4.82998 10.0079 4.77965C9.88654 4.72933 9.75642 4.70343 9.625 4.70343C9.49358 4.70343 9.36346 4.72933 9.24206 4.77965C9.12066 4.82998 9.01037 4.90374 8.9175 4.99671L8.91671 4.9975C8.82374 5.09037 8.74998 5.20066 8.69965 5.32206C8.64933 5.44346 8.62343 5.57358 8.62343 5.705C8.62343 5.83642 8.64933 5.96654 8.69965 6.08794C8.74998 6.20934 8.82374 6.31963 8.91671 6.4125L8.98491 6.48069C9.35516 6.85921 9.60349 7.34 9.69796 7.861C9.79055 8.37163 9.73113 8.89797 9.52745 9.37478C9.34189 9.86133 9.01698 10.2827 8.59305 10.5859C8.16054 10.8952 7.64498 11.0673 7.11338 11.0797L7.09 11.08H7C6.73478 11.08 6.48043 11.1854 6.29289 11.3729C6.10536 11.5604 6 11.8148 6 12.08C6 12.3452 6.10536 12.5996 6.29289 12.7871C6.48043 12.9746 6.73478 13.08 7 13.08H7.17399C7.6908 13.0821 8.19572 13.2352 8.62661 13.5206C9.05601 13.8049 9.3932 14.2082 9.59701 14.6811C9.80908 15.1643 9.87211 15.6998 9.77796 16.219C9.68349 16.74 9.43512 17.2207 9.06486 17.5993L9.05715 17.6072L8.9971 17.6671C8.90413 17.76 8.82998 17.8707 8.77965 17.9921C8.72933 18.1135 8.70343 18.2436 8.70343 18.375C8.70343 18.5064 8.72933 18.6365 8.77965 18.7579C8.82998 18.8793 8.90374 18.9896 8.99671 19.0825L8.9975 19.0833C9.09037 19.1763 9.20066 19.25 9.32206 19.3003C9.44346 19.3507 9.57359 19.3766 9.705 19.3766C9.83641 19.3766 9.96654 19.3507 10.0879 19.3003C10.2093 19.25 10.3196 19.1763 10.4125 19.0833L10.4807 19.0151C10.8592 18.6448 11.34 18.3965 11.861 18.302C12.3716 18.2095 12.898 18.2689 13.3748 18.4725C13.8613 18.6581 14.2827 18.983 14.5859 19.407C14.8952 19.8395 15.0673 20.355 15.0797 20.8866L15.08 20.91V21C15.08 21.2652 15.1854 21.5196 15.3729 21.7071C15.5604 21.8946 15.8148 22 16.08 22C16.3452 22 16.5996 21.8946 16.7871 21.7071C16.9746 21.5196 17.08 21.2652 17.08 21V20.83L17.08 20.826C17.0821 20.3092 17.2352 19.8043 17.5206 19.3734C17.805 18.944 18.2083 18.6067 18.6812 18.4029C19.1643 18.1909 19.6998 18.1279 20.219 18.222C20.74 18.3165 21.2207 18.5649 21.5993 18.9351L21.6071 18.9429L21.6671 19.0029C21.76 19.0959 21.8707 19.17 21.9921 19.2203C22.1135 19.2707 22.2436 19.2966 22.375 19.2966C22.5064 19.2966 22.6365 19.2707 22.7579 19.2203C22.8793 19.17 22.9896 19.0963 23.0825 19.0033L23.0833 19.0025C23.1763 18.9096 23.25 18.7993 23.3003 18.6779C23.3507 18.5565 23.3766 18.4264 23.3766 18.295C23.3766 18.1636 23.3507 18.0335 23.3003 17.9121C23.25 17.7907 23.1763 17.6804 23.0833 17.5875L23.0151 17.5193C22.6448 17.1408 22.3965 16.66 22.302 16.139C22.2079 15.6198 22.2709 15.0843 22.4829 14.6012C22.6867 14.1283 23.024 13.725 23.4534 13.4406C23.8843 13.1552 24.3892 13.0021 24.906 13L24.91 13L25 13C25.2652 13 25.5196 12.8946 25.7071 12.7071C25.8946 12.5196 26 12.2652 26 12C26 11.7348 25.8946 11.4804 25.7071 11.2929C25.5196 11.1054 25.2652 11 25 11H24.83L24.826 11C24.3092 10.9979 23.8043 10.8448 23.3734 10.5594C22.9425 10.2741 22.6045 9.86896 22.4009 9.39393C22.3646 9.30938 22.3403 9.22042 22.3284 9.12961C22.1773 8.69797 22.14 8.23332 22.222 7.781C22.3165 7.26 22.5649 6.77925 22.9351 6.40073L22.9428 6.39285L23.0029 6.3329C23.0959 6.24002 23.17 6.12934 23.2203 6.00794C23.2707 5.88654 23.2966 5.75641 23.2966 5.625C23.2966 5.49359 23.2707 5.36346 23.2203 5.24206C23.17 5.12066 23.0963 5.01037 23.0033 4.9175L23.0025 4.91671C22.9096 4.82374 22.7993 4.74998 22.6779 4.69965C22.5565 4.64933 22.4264 4.62343 22.295 4.62343C22.1636 4.62343 22.0335 4.64933 21.9121 4.69965C21.7907 4.74998 21.6804 4.82374 21.5875 4.91671L21.5193 4.98491C21.1408 5.35516 20.66 5.60349 20.139 5.69796C19.6198 5.79211 19.0843 5.72908 18.6011 5.51701C18.1282 5.3132 17.7249 4.97601 17.4406 4.54661C17.1552 4.11572 17.0021 3.6108 17 3.09399L17 3.09V3C17 2.73478 16.8946 2.48043 16.7071 2.29289C16.5196 2.10536 16.2652 2 16 2ZM23.4 15L24.3149 15.4038C24.2624 15.5226 24.2468 15.6544 24.27 15.7822C24.2929 15.9086 24.3527 16.0253 24.4419 16.1177L24.4967 16.1725C24.4968 16.1726 24.4966 16.1724 24.4967 16.1725C24.7755 16.451 24.997 16.7822 25.1479 17.1462C25.2989 17.5104 25.3766 17.9008 25.3766 18.295C25.3766 18.6892 25.2989 19.0796 25.1479 19.4438C24.9969 19.808 24.7756 20.1389 24.4967 20.4175L23.79 19.71L24.4975 20.4167C24.2189 20.6956 23.888 20.9169 23.5238 21.0679C23.1596 21.2189 22.7692 21.2966 22.375 21.2966C21.9808 21.2966 21.5904 21.2189 21.2262 21.0679C20.8622 20.917 20.5314 20.6959 20.2529 20.4171C20.2528 20.417 20.253 20.4172 20.2529 20.4171L20.1977 20.3619C20.1053 20.2727 19.9886 20.2129 19.8622 20.19C19.7344 20.1668 19.6026 20.1824 19.4838 20.2349L19.474 20.2392C19.3574 20.2891 19.258 20.372 19.1881 20.4777C19.1183 20.583 19.0808 20.7063 19.08 20.8325V21C19.08 21.7957 18.7639 22.5587 18.2013 23.1213C17.6387 23.6839 16.8757 24 16.08 24C15.2843 24 14.5213 23.6839 13.9587 23.1213C13.3961 22.5587 13.08 21.7957 13.08 21V20.9244C13.0753 20.7972 13.0333 20.6741 12.9591 20.5704C12.8833 20.4644 12.7772 20.3836 12.6548 20.3385C12.635 20.3313 12.6155 20.3234 12.5962 20.3149C12.4774 20.2624 12.3456 20.2468 12.2178 20.27C12.0914 20.2929 11.9747 20.3527 11.8823 20.4419L11.8275 20.4967C11.8274 20.4968 11.8276 20.4966 11.8275 20.4967C11.549 20.7755 11.2178 20.997 10.8538 21.1479C10.4896 21.2989 10.0992 21.3766 9.705 21.3766C9.31075 21.3766 8.92037 21.2989 8.55618 21.1479C8.19233 20.9971 7.86174 20.7761 7.58329 20.4975C7.30436 20.2189 7.08308 19.888 6.93211 19.5238C6.78113 19.1596 6.70343 18.7692 6.70343 18.375C6.70343 17.9808 6.78113 17.5904 6.93211 17.2262C7.08308 16.862 7.30436 16.5311 7.58329 16.2525L7.63811 16.1977C7.72728 16.1053 7.78713 15.9886 7.81005 15.8622C7.83322 15.7344 7.81758 15.6026 7.76514 15.4838L7.76081 15.474C7.71087 15.3574 7.62801 15.258 7.52232 15.1881C7.41704 15.1183 7.29374 15.0808 7.1675 15.08H7C6.20435 15.08 5.44129 14.7639 4.87868 14.2013C4.31607 13.6387 4 12.8756 4 12.08C4 11.2844 4.31607 10.5213 4.87868 9.95868C5.44129 9.39607 6.20435 9.08 7 9.08H7.07564C7.20283 9.07526 7.32591 9.03327 7.42955 8.95914C7.53564 8.88327 7.61644 8.77723 7.66146 8.65482C7.66874 8.63505 7.67663 8.61551 7.68514 8.59624C7.73758 8.47742 7.75322 8.34561 7.73005 8.21782C7.70713 8.09142 7.64728 7.97468 7.5581 7.88231L7.50329 7.8275C7.22436 7.54888 7.00308 7.21802 6.85211 6.85382C6.70113 6.48963 6.62343 6.09925 6.62343 5.705C6.62343 5.31075 6.70113 4.92037 6.85211 4.55618C7.00301 4.19216 7.22415 3.86143 7.50289 3.58289C7.78143 3.30415 8.11216 3.08301 8.47618 2.93211C8.84037 2.78113 9.23075 2.70343 9.625 2.70343C10.0192 2.70343 10.4096 2.78113 10.7738 2.93211C11.138 3.08308 11.4689 3.30436 11.7475 3.58329L11.8023 3.6381C11.8947 3.72728 12.0114 3.78713 12.1378 3.81005C12.2656 3.83322 12.3974 3.81758 12.5162 3.76514C12.5803 3.73687 12.6469 3.71549 12.7151 3.70122C12.7848 3.6539 12.845 3.59323 12.8919 3.52232C12.9617 3.41704 12.9992 3.29374 13 3.1675V3C13 2.20435 13.3161 1.44129 13.8787 0.87868C14.4413 0.316071 15.2044 0 16 0C16.7956 0 17.5587 0.316071 18.1213 0.87868C18.6839 1.44129 19 2.20435 19 3V3.0875C19.0008 3.21374 19.0383 3.33704 19.1081 3.44232C19.178 3.54801 19.2774 3.63092 19.3939 3.68086L19.4038 3.68508C19.5226 3.73752 19.6544 3.75322 19.7822 3.73005C19.9086 3.70713 20.0253 3.64728 20.1177 3.55811L20.1725 3.50329C20.4511 3.22436 20.782 3.00308 21.1462 2.85211C21.5104 2.70113 21.9008 2.62343 22.295 2.62343C22.6892 2.62343 23.0796 2.70113 23.4438 2.85211C23.808 3.00308 24.1389 3.22436 24.4175 3.50329C24.6961 3.78174 24.9171 4.11233 25.0679 4.47618C25.2189 4.84037 25.2966 5.23075 25.2966 5.625C25.2966 6.01925 25.2189 6.40963 25.0679 6.77382C24.917 7.13784 24.6959 7.46857 24.4171 7.7471C24.417 7.74724 24.4172 7.74697 24.4171 7.7471L24.3619 7.80231C24.2727 7.89468 24.2129 8.01142 24.19 8.13782C24.1668 8.26561 24.1824 8.39742 24.2349 8.51624C24.2631 8.58027 24.2845 8.64692 24.2988 8.71507C24.3461 8.78479 24.4068 8.84498 24.4777 8.89195C24.583 8.96167 24.7063 8.99921 24.8325 9H25C25.7957 9 26.5587 9.31607 27.1213 9.87868C27.6839 10.4413 28 11.2043 28 12C28 12.7957 27.6839 13.5587 27.1213 14.1213C26.5587 14.6839 25.7957 15 25 15H24.9125C24.7863 15.0008 24.663 15.0383 24.5577 15.1081C24.452 15.178 24.3691 15.2774 24.3191 15.3939L23.4 15Z" fill="#072D4B"/>
</g>
<defs>
<filter id="filter0_d_4_105" x="0" y="0" width="32" height="32" filterUnits="userSpaceOnUse" color-interpolation-filters="sRGB">
<feFlood flood-opacity="0" result="BackgroundImageFix"/>
<feColorMatrix in="SourceAlpha" type="matrix" values="0 0 0 0 0 0 0 0 0 0 0 0 0 0 0 0 0 0 127 0" result="hardAlpha"/>
<feOffset dy="4"/>
<feGaussianBlur stdDeviation="2"/>
<feComposite in2="hardAlpha" operator="out"/>
<feColorMatrix type="matrix" values="0 0 0 0 0 0 0 0 0 0 0 0 0 0 0 0 0 0 0.25 0"/>
<feBlend mode="normal" in2="BackgroundImageFix" result="effect1_dropShadow_4_105"/>
<feBlend mode="normal" in="SourceGraphic" in2="effect1_dropShadow_4_105" result="shape"/>
</filter>
</defs>
</svg>
